<svg id="Layer_1" data-name="Layer 1" xmlns="http://www.w3.org/2000/svg" viewBox="0 0 1981.16 802.7"><defs><style>.cls-1{fill:#fff;}</style></defs><path class="cls-1" d="M913.48,60.09h58.19l34.63,115,38.32-115.52H1092l38.32,115.52,34.63-115h57L1155.6,260.21h-48l-40-114.39-39.74,114.39h-48Z"/><path class="cls-1" d="M1205.53,182.72v-.57c0-43.71,35.76-80.33,85.15-80.33,49.1,0,84.58,36.05,84.58,79.76v.57c0,43.71-35.76,80.33-85.15,80.33C1241,262.48,1205.53,226.43,1205.53,182.72Zm117.22,0v-.57c0-18.73-13.62-34.63-32.64-34.63-19.59,0-32.07,15.61-32.07,34.06v.57c0,18.73,13.62,34.62,32.64,34.62C1310.26,216.77,1322.75,201.17,1322.75,182.72Z"/><path class="cls-1" d="M1396.45,105.23h53.93v30.93c8.8-21,23-34.62,48.54-33.49v56.77h-4.54c-28.1,0-44,16.18-44,51.66v47.69h-53.93Z"/><path class="cls-1" d="M1516.67,51.58h53.93V258.79h-53.93Z"/><path class="cls-1" d="M1593.5,182.72v-.57c0-50,31.22-80.33,67.55-80.33,23.28,0,36.9,10.5,47.12,22.14V51.58h53.93V258.79h-53.93V238.35c-10.5,12.77-23.84,23.84-46.83,23.84C1625,262.19,1593.5,231.82,1593.5,182.72Zm115.52-.57v-.57c0-20.15-13.91-34.63-31.22-34.63s-31.51,14.19-31.51,34.63v.57c0,20.44,14.19,34.91,31.51,34.91S1709,202.59,1709,182.15Z"/><path class="cls-1" d="M920,404.43v-.57c0-57.06,46-103.32,107.29-103.32S1134,346.24,1134,403.29v.57c0,57.05-46,103.32-107.3,103.32S920,461.48,920,404.43Zm157.81,0v-.57c0-28.67-20.71-53.65-51.09-53.65-30.08,0-50.24,24.41-50.24,53.08v.57c0,28.67,20.72,53.65,50.81,53.65C1057.67,457.51,1077.82,433.09,1077.82,404.43Z"/><path class="cls-1" d="M1150.81,427.13v-.56c0-43.43,33.78-80.05,82.31-80.05,31.51,0,52.51,13.63,65.57,34.35l-36.62,27.24c-7.38-10.21-15.61-16.17-28.67-16.17-17.31,0-30.08,15.33-30.08,34.06v.57c0,19.86,12.49,34.91,30.65,34.91,12.77,0,21-6,29.52-15.89l36,26.11c-14.19,21-34.63,35.2-68.41,35.2C1184.87,506.9,1150.81,470.56,1150.81,427.13Z"/><path class="cls-1" d="M1306.25,427.13v-.56c0-44.85,32.07-80.33,77.49-80.33,53.08,0,77.48,38.89,77.48,84,0,3.41,0,7.38-.28,11.08H1358.19c4.26,16.74,16.46,25.26,33.21,25.26,12.77,0,23-4.83,34.06-15.61l29.8,24.69c-14.76,18.73-36,31.23-66.7,31.23C1340.31,506.9,1306.25,474.82,1306.25,427.13Zm104.45-13.34c-2-17-11.92-27.81-26.68-27.81-14.19,0-23.84,11.07-26.68,27.81Z"/><path class="cls-1" d="M1477.22,427.13v-.56c0-50,31.22-80.33,67.56-80.33,23.27,0,36.89,10.5,47.11,22.14V349.64h53.93V503.2h-53.93V482.77c-10.5,12.77-23.84,23.84-46.83,23.84C1508.72,506.61,1477.22,476.24,1477.22,427.13Zm115.52-.56V426c0-20.15-13.62-34.63-31.22-34.63-17.32,0-31.51,14.19-31.51,34.63v.57c0,20.43,14.19,34.91,31.51,34.91S1592.74,447,1592.74,426.57Z"/><path class="cls-1" d="M1676,349.64h53.93v21.58c9.94-12.78,24.13-25,46-25,32.64,0,52.22,21.57,52.22,56.48V503.2h-53.92V420c0-16.75-8.8-25.83-21.58-25.83-13.05,0-22.71,9.08-22.71,25.83V503.2H1676Z"/><path class="cls-1" d="M1844.53,483.9l20.15-32.64c17.6,11.64,36.9,17.6,52.8,17.6,9.36,0,13.62-2.84,13.62-8.23v-.57c0-6-8.51-8.51-24.69-13.06-30.37-7.95-54.5-18.16-54.5-49.1v-.57c0-32.64,26.11-50.81,61.59-50.81,22.43,0,45.7,6.53,63.3,17.88l-18.45,34.07c-15.9-8.8-33.21-14.2-45.41-14.2-8.24,0-12.49,3.12-12.49,7.38v.57c0,6,8.8,8.8,25,13.63,30.36,8.51,54.49,19,54.49,48.82v.56c0,33.78-25.26,51.38-62.73,51.38C1891.36,506.61,1865.82,499.23,1844.53,483.9Z"/><path class="cls-1" d="M926.82,548.93h76.64c71,0,112.12,40.88,112.12,98.21v.57c0,57.33-41.73,99.91-113.25,99.91H926.82Zm77.49,149.87c32.93,0,54.78-18.16,54.78-50.24V648c0-31.79-21.85-50.24-54.78-50.24H981.89v101Z"/><path class="cls-1" d="M1128.33,671.55V671c0-50,31.23-80.33,67.56-80.33,23.27,0,36.9,10.51,47.11,22.14V594.06h53.93V747.62H1243V727.18C1232.5,740,1219.16,751,1196.17,751,1159.84,751,1128.33,720.66,1128.33,671.55Zm115.52-.57v-.56c0-20.16-13.62-34.63-31.22-34.63-17.31,0-31.51,14.19-31.51,34.63V671c0,20.44,14.2,34.92,31.51,34.92S1243.85,691.42,1243.85,671Z"/><path class="cls-1" d="M1318.91,780.55l16.75-37.75c8.52,5.11,17.6,8.23,23.56,8.23,5.39,0,9.08-1.42,12.49-6.25l-60.18-150.72H1368l30.65,92.54,29-92.54H1483l-56.21,149.87c-13.34,35.76-27.82,50-58.47,50C1349.28,793.89,1333.1,788.49,1318.91,780.55Z"/><path class="cls-1" d="M748.82,315.78a388.58,388.58,0,0,0-67.05-156.19A393.86,393.86,0,0,0,578.11,60.86a10.33,10.33,0,0,0-1.29-.42c-3-.73-6.79,0-8.81,2.18-2.47,2.68-1.63,6.65-1.14,9.09A24.54,24.54,0,0,0,568.39,76c2,5,3,7.56,4.14,10.08,2.1,4.62,3.93,7.94,4.27,8.56,31.42,58.11,26.79,101.19,26.79,101.19-.53,6.54-2.57,28.34-17.52,48.22-21.25,28.26-55.15,34.94-69.44,37.29-72.28,11.9-100.88-34.93-199.2-55.7-35-7.4-88-18.65-147.59-.19-96.37,29.87-141.1,115.37-145,123.16-62.5,124.08,12.62,250.66,30.35,275.53,26.09,36.6,61.84,64.6,71.78,72.3a388.28,388.28,0,0,0,228.41,81.31c31.75.81,110.09-1.07,193.9-45.74a380,380,0,0,0,55.07-35.72c89-69.64,122.09-160.78,132.51-194.52C761.27,422.64,755.24,354,748.82,315.78Z"/><path class="cls-1" d="M404.34,10.74C376,.65,349.42,0,327.78,1A290.14,290.14,0,0,0,283,7c-15.26,3.36-34.52,9.36-36.59,10h0A364.94,364.94,0,0,0,206.1,32.48c-8.67,4-44.5,20.58-85.08,53.63-32.35,26.35-50.15,48.73-81.65,88.34-3.47,4.37-8,12.05-17.08,27.42s-11.88,23.75-8.64,28a8,8,0,0,0,5,2.71c4.08.59,7.48-2.35,14.68-9.07,6-5.63,9.05-8.44,11.15-10.58,3.94-4,9.64-9.68,16.92-16.41,20-19.13,54.48-46.55,103.83-61.85,39.91-12.38,74-12,89.23-11.73,25.4.47,45.13,4.13,63.24,7.49,48.24,8.94,80.25,21.65,114.22,12.21a47.35,47.35,0,0,0,17.73-9c19.21-15.82,19.21-43.22,19.16-46.24C468.27,51.89,433.74,21.18,404.34,10.74Z"/></svg>